<svg width="188" height="38" viewBox="0 0 188 38" fill="none" xmlns="http://www.w3.org/2000/svg">
<g filter="url(#filter0_d_40_421)">
<path fill-rule="evenodd" clip-rule="evenodd" d="M177.094 0.973867C177.661 1.57812 177.63 2.52738 177.026 3.0941C176.379 3.70065 175.561 4.49392 174.604 5.42172C171.435 8.49266 166.747 13.0374 161.73 17.1634C158.456 19.8561 154.992 22.4145 151.655 24.3067C148.355 26.1778 145.004 27.5 142 27.5C138.779 27.5 135.25 26.4782 131.757 25.0438C128.245 23.6021 124.647 21.6907 121.271 19.8105C120.235 19.2339 119.225 18.6627 118.243 18.1079C115.991 16.8349 113.892 15.6481 111.993 14.6801C110.638 13.9893 109.43 13.434 108.388 13.0536C107.326 12.6659 106.54 12.5 106 12.5C104.912 12.5 103.427 13.1724 101.454 14.5683C99.9244 15.6506 98.2978 17.0179 96.5423 18.4935C96.0901 18.8736 95.6294 19.2609 95.1595 19.6524C92.9055 21.5304 90.4741 23.4751 87.9723 24.9487C85.4775 26.4182 82.7805 27.5 79.9998 27.5C74.8123 27.5 70.9177 25.3367 67.3702 23.3662L67.2715 23.3113C63.6435 21.2963 60.3601 19.5 55.9998 19.5C54.0717 19.5 51.8885 20.4683 49.4525 22.193C47.041 23.9003 44.5834 26.1998 42.1115 28.5804C41.8053 28.8753 41.4986 29.1718 41.1917 29.4684C39.0588 31.5299 36.9173 33.5997 34.8874 35.2072C32.6255 36.9984 30.1669 38.5 27.7416 38.5C25.2706 38.5 22.972 36.9598 21.0533 35.1116C19.0845 33.2152 17.2462 30.7314 15.6857 28.3134C14.118 25.8842 12.794 23.4634 11.8637 21.6549C11.3978 20.7491 11.0287 19.9933 10.7754 19.4622C10.6487 19.1966 10.5508 18.9869 10.4841 18.8425C10.4508 18.7703 10.4252 18.7145 10.4077 18.676L10.3876 18.6317L10.3821 18.6196L10.38 18.615C10.3799 18.6146 10.3798 18.6144 11.6648 18.0375L10.38 18.615C10.0408 17.8592 10.3781 16.9709 11.1338 16.6316C11.8895 16.2923 12.7771 16.6298 13.1165 17.3854C13.1165 17.3855 13.1165 17.3854 13.1165 17.3854L13.1174 17.3874L13.1212 17.3959L13.138 17.433C13.1533 17.4665 13.1765 17.5173 13.2075 17.5842C13.2694 17.7182 13.362 17.9167 13.4831 18.1706C13.7254 18.6786 14.0811 19.4071 14.5314 20.2826C15.4337 22.0367 16.7086 24.3658 18.2064 26.6867C19.7113 29.0186 21.4048 31.2848 23.1345 32.9509C24.9143 34.6652 26.4808 35.5 27.7416 35.5C29.0479 35.5 30.7881 34.6267 33.025 32.8553C34.9293 31.3473 36.9517 29.3932 39.1008 27.3169C39.4081 27.02 39.718 26.7205 40.0305 26.4196C42.4907 24.0502 45.0985 21.5998 47.719 19.7445C50.3148 17.9067 53.1299 16.5 55.9998 16.5C61.1874 16.5 65.082 18.6633 68.6294 20.6338L68.7281 20.6887C72.3562 22.7037 75.6395 24.5 79.9998 24.5C82.0172 24.5 84.1695 23.7068 86.4498 22.3638C88.723 21.0249 90.9923 19.2196 93.2392 17.3476C93.6791 16.9811 94.1197 16.6106 94.5594 16.2408C96.3258 14.7555 98.079 13.2813 99.7216 12.1192C101.724 10.7027 103.889 9.5 106 9.5C107.059 9.5 108.231 9.80284 109.417 10.2354C110.622 10.6754 111.952 11.2919 113.356 12.0074C115.315 13.006 117.505 14.2444 119.787 15.5339C120.755 16.0813 121.74 16.638 122.73 17.1895C126.088 19.0593 129.558 20.8979 132.896 22.2687C136.253 23.6469 139.356 24.5 142 24.5C144.216 24.5 147.012 23.4905 150.175 21.697C153.301 19.9246 156.616 17.4855 159.825 14.8464C164.732 10.8099 169.274 6.40862 172.445 3.33535C173.43 2.38039 174.283 1.55365 174.974 0.905911C175.578 0.339191 176.527 0.369616 177.094 0.973867Z" fill="url(#paint0_linear_40_421)"/>
</g>
<defs>
<filter id="filter0_d_40_421" x="0.248047" y="0.5" width="187.252" height="58" filterUnits="userSpaceOnUse" color-interpolation-filters="sRGB">
<feFlood flood-opacity="0" result="BackgroundImageFix"/>
<feColorMatrix in="SourceAlpha" type="matrix" values="0 0 0 0 0 0 0 0 0 0 0 0 0 0 0 0 0 0 127 0" result="hardAlpha"/>
<feOffset dy="10"/>
<feGaussianBlur stdDeviation="5"/>
<feColorMatrix type="matrix" values="0 0 0 0 0.0456816 0 0 0 0 0.0410428 0 0 0 0 0.12686 0 0 0 0.54362 0"/>
<feBlend mode="normal" in2="BackgroundImageFix" result="effect1_dropShadow_40_421"/>
<feBlend mode="normal" in="SourceGraphic" in2="effect1_dropShadow_40_421" result="shape"/>
</filter>
<linearGradient id="paint0_linear_40_421" x1="52.8111" y1="37" x2="84.3696" y2="-37.0505" gradientUnits="userSpaceOnUse">
<stop stop-color="#FFDB30" stop-opacity="0.01"/>
<stop offset="0.393247" stop-color="#E27034"/>
<stop offset="1" stop-color="#3EDEF6"/>
</linearGradient>
</defs>
</svg>
