<svg width="178" height="47" viewBox="0 0 178 47" fill="none" xmlns="http://www.w3.org/2000/svg">
<g filter="url(#filter0_d_40_420)">
<path fill-rule="evenodd" clip-rule="evenodd" d="M10.5 2C10.5 1.17157 11.1716 0.5 12 0.5C16.2048 0.5 19.2174 2.13996 21.4748 4.57368C23.6675 6.93768 25.1276 10.0316 26.3756 12.9019C26.5781 13.3676 26.7746 13.826 26.9673 14.2757C28.0051 16.6971 28.9339 18.8643 30.1064 20.5497C31.4367 22.462 32.9074 23.5 35 23.5C39.6862 23.5 42.9064 20.1195 45.847 16.1125C46.3053 15.488 46.7652 14.8357 47.2231 14.1862C48.1507 12.8704 49.0701 11.5663 49.9514 10.5289C51.2383 9.01389 52.8863 7.5 55 7.5C58.1018 7.5 60.2734 8.70708 61.949 10.4651C63.2883 11.8703 64.3398 13.6731 65.315 15.3453C65.4909 15.6469 65.6644 15.9442 65.8365 16.2342C67.0148 18.2186 68.2048 20.0049 69.8822 21.3193C71.512 22.5966 73.6994 23.5 77 23.5C79.5292 23.5 81.5855 22.4636 83.4541 20.765C85.3598 19.0328 86.9926 16.6839 88.6496 14.1736C88.8319 13.8975 89.0149 13.6187 89.1987 13.3387C90.6396 11.1433 92.1345 8.86565 93.7962 7.09769C95.6955 5.07691 98.0131 3.5 101 3.5C103.962 3.5 106.314 5.05765 108.254 6.84996C109.23 7.75204 110.15 8.75994 111.022 9.73309C111.164 9.89248 111.305 10.0507 111.445 10.2075C112.175 11.025 112.871 11.8053 113.582 12.5256C115.305 14.2706 116.836 15.3609 118.462 15.5528C120.006 15.735 122.075 15.1435 124.97 12.4095C126.371 11.0866 127.941 10.5081 129.604 10.5068C131.2 10.5056 132.784 11.0354 134.282 11.7226C135.646 12.3483 137.062 13.1658 138.459 13.9716C138.599 14.0522 138.738 14.1326 138.877 14.2128C140.438 15.1113 141.997 15.9901 143.599 16.6871C146.784 18.0732 149.947 18.6586 153.257 17.2522C156.639 15.8158 160.492 12.1711 164.675 4.29627C165.064 3.56467 165.972 3.28667 166.704 3.67533C167.435 4.06399 167.713 4.97214 167.325 5.70373C163.008 13.8289 158.736 18.1842 154.43 20.0134C150.053 21.8727 145.966 20.9893 142.401 19.4379C140.628 18.6662 138.937 17.709 137.38 16.8126C137.246 16.7351 137.112 16.6581 136.98 16.5818C135.554 15.7593 134.26 15.0133 133.031 14.4493C131.685 13.8318 130.566 13.5061 129.607 13.5068C128.715 13.5075 127.879 13.7884 127.03 14.5905C123.813 17.6291 120.9 18.8613 118.11 18.5321C115.402 18.2126 113.247 16.4564 111.447 14.6332C110.678 13.8539 109.922 13.0072 109.194 12.1904C109.057 12.037 108.921 11.8847 108.786 11.734C107.918 10.764 107.08 9.85009 106.218 9.05334C104.48 7.44799 102.836 6.5 101 6.5C99.1889 6.5 97.6075 7.42309 95.9822 9.15231C94.5124 10.7161 93.1713 12.7569 91.7027 14.9917C91.5217 15.2671 91.3387 15.5455 91.1534 15.8264C89.5099 18.3161 87.6919 20.9672 85.472 22.985C83.215 25.0364 80.4708 26.5 77 26.5C73.0818 26.5 70.2301 25.4034 68.0317 23.6807C65.8809 21.9951 64.4537 19.7814 63.257 17.7658C63.0585 17.4315 62.8674 17.1051 62.6814 16.7873C61.6975 15.1064 60.8525 13.6629 59.7774 12.5349C58.5936 11.2929 57.1793 10.5 55 10.5C54.3554 10.5 53.4993 10.9861 52.2378 12.4711C51.4407 13.4095 50.6606 14.5175 49.7898 15.7542C49.3146 16.4291 48.8123 17.1424 48.2656 17.8875C45.3353 21.8805 41.3138 26.5 35 26.5C31.5926 26.5 29.3133 24.663 27.6436 22.2628C26.2799 20.3024 25.2086 17.7965 24.1791 15.3883C23.9933 14.9538 23.8089 14.5225 23.6244 14.0981C22.3724 11.2184 21.0825 8.56232 19.2752 6.61382C17.5326 4.73504 15.2952 3.5 12 3.5C11.1716 3.5 10.5 2.82843 10.5 2Z" fill="url(#paint0_linear_40_420)"/>
</g>
<defs>
<filter id="filter0_d_40_420" x="0.5" y="0.5" width="177" height="46" filterUnits="userSpaceOnUse" color-interpolation-filters="sRGB">
<feFlood flood-opacity="0" result="BackgroundImageFix"/>
<feColorMatrix in="SourceAlpha" type="matrix" values="0 0 0 0 0 0 0 0 0 0 0 0 0 0 0 0 0 0 127 0" result="hardAlpha"/>
<feOffset dy="10"/>
<feGaussianBlur stdDeviation="5"/>
<feColorMatrix type="matrix" values="0 0 0 0 0.0456816 0 0 0 0 0.0410428 0 0 0 0 0.12686 0 0 0 0.54362 0"/>
<feBlend mode="normal" in2="BackgroundImageFix" result="effect1_dropShadow_40_420"/>
<feBlend mode="normal" in="SourceGraphic" in2="effect1_dropShadow_40_420" result="shape"/>
</filter>
<linearGradient id="paint0_linear_40_420" x1="165.591" y1="34.1955" x2="16.2934" y2="34.1955" gradientUnits="userSpaceOnUse">
<stop stop-color="#FFAD57"/>
<stop offset="0.770692" stop-color="#EAFF00" stop-opacity="0.466004"/>
<stop offset="1" stop-color="#FF8502" stop-opacity="0.01"/>
</linearGradient>
</defs>
</svg>
