<svg width="185" height="58" viewBox="0 0 185 58" fill="none" xmlns="http://www.w3.org/2000/svg">
<g filter="url(#filter0_d_40_418)">
<path fill-rule="evenodd" clip-rule="evenodd" d="M161.649 3.7168C164.116 2.88971 167.326 2.96006 172.355 5.35474C173.103 5.71091 173.998 5.3933 174.354 4.64535C174.711 3.89739 174.393 3.00233 173.645 2.64616C168.174 0.0408392 164.134 -0.280161 160.695 0.872314C157.71 1.87293 155.35 3.95714 153.107 5.93881C152.866 6.1517 152.626 6.3634 152.387 6.57246C149.851 8.79121 147.207 10.9167 143.449 12.0742C139.703 13.2281 134.685 13.4654 127.381 11.5495C124.808 10.8747 122.615 12.2825 120.881 13.987C119.25 15.5904 117.654 17.8224 116.097 20.0012C115.975 20.1724 115.853 20.3433 115.731 20.5135C114.01 22.9162 112.302 25.2408 110.464 26.9727C108.627 28.7041 106.847 29.6628 105 29.6628C100.557 29.6628 95.7075 27.7602 90.9484 25.7046C90.4831 25.5036 90.0179 25.3009 89.5545 25.099C87.7006 24.2912 85.8747 23.4957 84.1775 22.8687C82.0701 22.0903 79.9826 21.5004 78.1061 21.5004C76.0284 21.5004 74.0413 22.5425 72.2116 23.7934C70.914 24.6806 69.5353 25.792 68.1352 26.9206C67.5535 27.3895 66.968 27.8614 66.3832 28.3215C62.2631 31.5624 57.8237 34.5005 52.5167 34.5005C51.6828 34.5005 50.4415 33.926 48.7188 32.6182C47.2565 31.5081 45.6882 30.0653 44.0093 28.5207C43.7845 28.3138 43.5576 28.1052 43.3288 27.8952C41.4279 26.151 39.4015 24.3315 37.3877 22.9508C35.4041 21.5908 33.2155 20.5004 31.0001 20.5004C28.7434 20.5004 26.7054 21.6599 24.9668 22.9938C23.6283 24.0207 22.3012 25.2884 21.0708 26.4637C20.7004 26.8176 20.3386 27.1632 19.988 27.4912C18.388 28.9882 17.0345 30.1069 15.8262 30.5965C15.2567 30.8272 14.7951 30.8845 14.399 30.8223C14.013 30.7616 13.5578 30.5672 13.0263 30.0687C12.422 29.502 11.4728 29.5324 10.906 30.1366C10.3393 30.7409 10.3698 31.6902 10.974 32.2569C11.8676 33.095 12.8562 33.6167 13.9333 33.7859C15.0001 33.9536 16.0206 33.7546 16.9527 33.3769C18.7475 32.6498 20.4752 31.1437 22.0377 29.6819C22.442 29.3036 22.8387 28.9248 23.2307 28.5505C24.4358 27.4 25.5959 26.2924 26.793 25.374C28.3824 24.1546 29.7569 23.5004 31.0001 23.5004C32.2847 23.5004 33.8462 24.1601 35.6912 25.4251C37.506 26.6694 39.3869 28.3499 41.3006 30.1057C41.5251 30.3117 41.7503 30.519 41.976 30.7267C43.6369 32.2554 45.3204 33.8048 46.9048 35.0077C48.6399 36.3249 50.5923 37.5005 52.5167 37.5005C58.9381 37.5005 64.0947 33.9385 68.238 30.6794C68.8972 30.1608 69.5242 29.6553 70.1267 29.1695C71.4794 28.0789 72.709 27.0875 73.9048 26.27C75.6403 25.0834 76.9852 24.5004 78.1061 24.5004C79.4282 24.5004 81.1023 24.9309 83.138 25.6829C84.7468 26.2772 86.47 27.0278 88.3149 27.8315C88.7882 28.0376 89.2694 28.2473 89.7588 28.4587C94.4484 30.4842 99.8468 32.6628 105 32.6628C107.952 32.6628 110.438 31.1196 112.521 29.1561C114.605 27.1931 116.473 24.6297 118.17 22.2603C118.275 22.113 118.38 21.9666 118.484 21.8211C120.1 19.5616 121.548 17.538 122.984 16.1265C124.538 14.5993 125.661 14.1998 126.62 14.4514C134.316 16.4701 139.922 16.2997 144.332 14.9413C148.73 13.5866 151.774 11.0952 154.363 8.83034C154.592 8.63013 154.816 8.43299 155.036 8.23932C157.377 6.18037 159.272 4.51333 161.649 3.7168Z" fill="url(#paint0_linear_40_418)"/>
</g>
<defs>
<filter id="filter0_d_40_418" x="0.5" y="0.238281" width="184" height="57.2617" filterUnits="userSpaceOnUse" color-interpolation-filters="sRGB">
<feFlood flood-opacity="0" result="BackgroundImageFix"/>
<feColorMatrix in="SourceAlpha" type="matrix" values="0 0 0 0 0 0 0 0 0 0 0 0 0 0 0 0 0 0 127 0" result="hardAlpha"/>
<feOffset dy="10"/>
<feGaussianBlur stdDeviation="5"/>
<feColorMatrix type="matrix" values="0 0 0 0 0.0456816 0 0 0 0 0.0410428 0 0 0 0 0.12686 0 0 0 0.54362 0"/>
<feBlend mode="normal" in2="BackgroundImageFix" result="effect1_dropShadow_40_418"/>
<feBlend mode="normal" in="SourceGraphic" in2="effect1_dropShadow_40_418" result="shape"/>
</filter>
<linearGradient id="paint0_linear_40_418" x1="172.572" y1="50.176" x2="12.0001" y2="50.176" gradientUnits="userSpaceOnUse">
<stop stop-color="#63C178"/>
<stop offset="0.831269" stop-color="#36BBFF" stop-opacity="0.466004"/>
<stop offset="1" stop-color="#C1F793" stop-opacity="0.01"/>
</linearGradient>
</defs>
</svg>
