<svg width="185" height="60" viewBox="0 0 185 60" fill="none" xmlns="http://www.w3.org/2000/svg">
<g filter="url(#filter0_d_40_417)">
<path fill-rule="evenodd" clip-rule="evenodd" d="M173.614 0.631945C172.859 0.292689 171.971 0.630207 171.632 1.38581L171.627 1.39626L171.61 1.43335C171.595 1.46683 171.572 1.51764 171.541 1.58461C171.479 1.71856 171.386 1.9171 171.265 2.17099C171.023 2.67892 170.667 3.40749 170.217 4.28297C169.314 6.03702 168.039 8.3662 166.542 10.687C165.037 13.019 163.343 15.2852 161.614 16.9513C159.834 18.6656 158.267 19.5004 157.006 19.5004C155.541 19.5004 154.235 18.9692 152.892 18.0457C151.683 17.2144 150.54 16.1371 149.259 14.9298C149.077 14.7578 148.892 14.5832 148.703 14.4063C145.776 11.6609 142.19 8.50037 136.748 8.50037C135.182 8.50037 133.678 9.07015 132.278 9.9222C130.877 10.7754 129.497 11.9616 128.152 13.32C125.485 16.0143 122.771 19.5772 120.136 23.0372L120.095 23.0915C117.412 26.6145 114.808 30.0284 112.292 32.57C111.038 33.8366 109.852 34.8379 108.738 35.5159C107.622 36.1952 106.66 36.5004 105.828 36.5004C103.847 36.5004 101.605 35.6121 99.1427 34.0723C96.7002 32.5451 94.2104 30.4876 91.7465 28.3641C91.262 27.9465 90.7771 27.5251 90.2938 27.1051C88.3577 25.4225 86.4467 23.7617 84.6803 22.4518C83.5693 21.6278 82.4661 20.9045 81.3985 20.383C80.3412 19.8666 79.2232 19.5004 78.1058 19.5004C76.0281 19.5004 74.041 20.5424 72.2113 21.7934C70.9137 22.6805 69.535 23.7919 68.1349 24.9205C67.5532 25.3894 66.9678 25.8614 66.3829 26.3214C62.2629 29.5623 57.8235 32.5004 52.5164 32.5004C47.6984 32.5004 45.4171 31.0036 43.909 29.7571C43.6432 29.5374 43.4208 29.342 43.1939 29.1427C43.0571 29.0226 42.9187 28.9011 42.7683 28.772C42.408 28.4627 41.9955 28.1259 41.5432 27.8661C41.0722 27.5955 40.51 27.3794 39.8499 27.3596C39.1897 27.3397 38.5619 27.5201 37.9624 27.8325C36.4279 28.632 35.158 28.9317 33.7622 28.5998C32.2928 28.2505 30.4326 27.1431 27.8995 24.5236C26.3073 22.8771 24.6234 22.314 22.8972 22.5527C21.4275 22.7558 20.0611 23.5423 18.9853 24.1616C18.9368 24.1895 18.8889 24.217 18.8417 24.2442C17.617 24.9476 16.689 25.4513 15.7816 25.5759C15.0317 25.679 14.1601 25.5359 13.026 24.4722C12.4218 23.9055 11.4725 23.9359 10.9058 24.5402C10.3391 25.1444 10.3695 26.0937 10.9737 26.6604C12.6899 28.27 14.4429 28.7881 16.19 28.548C17.7452 28.3343 19.1584 27.5222 20.263 26.8875L20.3358 26.8456C21.5789 26.1316 22.4657 25.6408 23.308 25.5244C23.96 25.4342 24.7225 25.5538 25.743 26.609C28.4352 29.3932 30.782 30.975 33.0683 31.5185C35.4282 32.0795 37.4628 31.4756 39.3486 30.493C39.6042 30.3598 39.7246 30.3572 39.7598 30.3582C39.7952 30.3593 39.8757 30.368 40.0489 30.4674C40.2407 30.5776 40.4737 30.756 40.8144 31.0484C40.9151 31.1349 41.0316 31.237 41.1585 31.3483C41.411 31.5696 41.7047 31.8272 41.9977 32.0694C43.9549 33.6872 46.8938 35.5004 52.5164 35.5004C58.9379 35.5004 64.0945 31.9384 68.2377 28.6793C68.8969 28.1608 69.5239 27.6553 70.1264 27.1694C71.4791 26.0788 72.7088 25.0874 73.9045 24.2699C75.64 23.0833 76.9849 22.5004 78.1058 22.5004C78.5878 22.5004 79.2357 22.6654 80.0818 23.0787C80.9176 23.4869 81.8553 24.0917 82.8933 24.8615C84.5569 26.0951 86.3516 27.6545 88.2777 29.328C88.7725 29.7579 89.2759 30.1953 89.788 30.6366C92.2554 32.7631 94.8968 34.9557 97.5522 36.616C100.187 38.2636 103.01 39.5004 105.828 39.5004C107.394 39.5004 108.898 38.9306 110.298 38.0785C111.699 37.2254 113.079 36.0391 114.424 34.6807C117.091 31.9865 119.805 28.4236 122.44 24.9635L122.481 24.9092C125.164 21.3862 127.768 17.9724 130.284 15.4307C131.538 14.1641 132.724 13.1629 133.838 12.4848C134.954 11.8056 135.915 11.5004 136.748 11.5004C140.902 11.5004 143.714 13.8398 146.651 16.5945C146.829 16.762 147.009 16.9318 147.191 17.103C148.45 18.2921 149.778 19.5448 151.192 20.5175C152.848 21.6565 154.741 22.5004 157.006 22.5004C159.477 22.5004 161.776 20.9601 163.695 19.112C165.664 17.2156 167.502 14.7318 169.062 12.3137C170.63 9.88454 171.954 7.46372 172.884 5.65527C173.35 4.7495 173.719 3.9937 173.973 3.46257C174.099 3.19692 174.197 2.98726 174.264 2.84289C174.297 2.7707 174.323 2.71482 174.34 2.6764L174.36 2.63202L174.368 2.61536C174.368 2.615 174.368 2.61471 173 2.00037L174.368 2.61536C174.707 1.8596 174.37 0.971234 173.614 0.631945Z" fill="url(#paint0_linear_40_417)"/>
</g>
<defs>
<filter id="filter0_d_40_417" x="0.5" y="0.5" width="184" height="59" filterUnits="userSpaceOnUse" color-interpolation-filters="sRGB">
<feFlood flood-opacity="0" result="BackgroundImageFix"/>
<feColorMatrix in="SourceAlpha" type="matrix" values="0 0 0 0 0 0 0 0 0 0 0 0 0 0 0 0 0 0 127 0" result="hardAlpha"/>
<feOffset dy="10"/>
<feGaussianBlur stdDeviation="5"/>
<feColorMatrix type="matrix" values="0 0 0 0 0.0456816 0 0 0 0 0.0410428 0 0 0 0 0.12686 0 0 0 0.54362 0"/>
<feBlend mode="normal" in2="BackgroundImageFix" result="effect1_dropShadow_40_417"/>
<feBlend mode="normal" in="SourceGraphic" in2="effect1_dropShadow_40_417" result="shape"/>
</filter>
<linearGradient id="paint0_linear_40_417" x1="73.5626" y1="-7.53079" x2="93.6581" y2="61.1987" gradientUnits="userSpaceOnUse">
<stop stop-color="#A330FF" stop-opacity="0.01"/>
<stop offset="0.393247" stop-color="#BC3DCB"/>
<stop offset="1" stop-color="#E3507A"/>
</linearGradient>
</defs>
</svg>
