<svg width="136" height="58" viewBox="0 0 136 58" fill="none" xmlns="http://www.w3.org/2000/svg">
<path d="M64.386 27V15.264H68.616C69.24 15.264 69.822 15.324 70.362 15.444C70.914 15.564 71.394 15.768 71.802 16.056C72.21 16.332 72.534 16.704 72.774 17.172C73.014 17.64 73.134 18.222 73.134 18.918C73.134 19.782 72.942 20.496 72.558 21.06C72.186 21.612 71.682 22.026 71.046 22.302L73.71 27H70.74L68.49 22.77H67.032V27H64.386ZM67.032 20.664H68.4C69.096 20.664 69.624 20.52 69.984 20.232C70.356 19.932 70.542 19.494 70.542 18.918C70.542 18.342 70.356 17.94 69.984 17.712C69.624 17.484 69.096 17.37 68.4 17.37H67.032V20.664ZM79.0293 27.216C78.3933 27.216 77.7993 27.114 77.2473 26.91C76.6953 26.694 76.2153 26.388 75.8073 25.992C75.3993 25.584 75.0813 25.092 74.8533 24.516C74.6253 23.94 74.5113 23.28 74.5113 22.536C74.5113 21.816 74.6313 21.168 74.8713 20.592C75.1113 20.004 75.4233 19.512 75.8073 19.116C76.2033 18.708 76.6533 18.396 77.1573 18.18C77.6613 17.964 78.1833 17.856 78.7233 17.856C79.3593 17.856 79.9113 17.964 80.3793 18.18C80.8593 18.396 81.2553 18.696 81.5673 19.08C81.8913 19.464 82.1313 19.92 82.2873 20.448C82.4433 20.964 82.5213 21.528 82.5213 22.14C82.5213 22.38 82.5093 22.608 82.4853 22.824C82.4613 23.04 82.4373 23.202 82.4133 23.31H77.0673C77.1873 23.958 77.4513 24.438 77.8593 24.75C78.2793 25.05 78.7893 25.2 79.3893 25.2C80.0253 25.2 80.6673 25.002 81.3153 24.606L82.1973 26.208C81.7413 26.52 81.2313 26.766 80.6673 26.946C80.1153 27.126 79.5693 27.216 79.0293 27.216ZM77.0493 21.564H80.2713C80.2713 21.06 80.1573 20.652 79.9293 20.34C79.7013 20.028 79.3173 19.872 78.7773 19.872C78.3573 19.872 77.9853 20.01 77.6613 20.286C77.3493 20.562 77.1453 20.988 77.0493 21.564ZM88.2377 27.216C87.6137 27.216 87.0317 27.114 86.4917 26.91C85.9637 26.694 85.5017 26.388 85.1057 25.992C84.7097 25.596 84.3977 25.11 84.1697 24.534C83.9417 23.946 83.8277 23.28 83.8277 22.536C83.8277 21.792 83.9537 21.132 84.2057 20.556C84.4577 19.968 84.7937 19.476 85.2137 19.08C85.6457 18.684 86.1437 18.384 86.7077 18.18C87.2717 17.964 87.8597 17.856 88.4717 17.856C89.0237 17.856 89.5097 17.946 89.9297 18.126C90.3617 18.306 90.7457 18.534 91.0817 18.81L89.8397 20.52C89.4197 20.172 89.0177 19.998 88.6337 19.998C87.9857 19.998 87.4757 20.226 87.1037 20.682C86.7317 21.138 86.5457 21.756 86.5457 22.536C86.5457 23.316 86.7317 23.934 87.1037 24.39C87.4877 24.846 87.9677 25.074 88.5437 25.074C88.8317 25.074 89.1077 25.014 89.3717 24.894C89.6477 24.762 89.9057 24.606 90.1457 24.426L91.1897 26.154C90.7457 26.538 90.2657 26.814 89.7497 26.982C89.2337 27.138 88.7297 27.216 88.2377 27.216ZM96.2383 27.216C95.6023 27.216 95.0083 27.114 94.4563 26.91C93.9043 26.694 93.4243 26.388 93.0163 25.992C92.6083 25.584 92.2903 25.092 92.0623 24.516C91.8343 23.94 91.7203 23.28 91.7203 22.536C91.7203 21.816 91.8403 21.168 92.0803 20.592C92.3203 20.004 92.6323 19.512 93.0163 19.116C93.4123 18.708 93.8623 18.396 94.3663 18.18C94.8703 17.964 95.3923 17.856 95.9323 17.856C96.5683 17.856 97.1203 17.964 97.5883 18.18C98.0683 18.396 98.4643 18.696 98.7763 19.08C99.1003 19.464 99.3403 19.92 99.4963 20.448C99.6523 20.964 99.7303 21.528 99.7303 22.14C99.7303 22.38 99.7183 22.608 99.6943 22.824C99.6703 23.04 99.6463 23.202 99.6223 23.31H94.2763C94.3963 23.958 94.6603 24.438 95.0683 24.75C95.4883 25.05 95.9983 25.2 96.5983 25.2C97.2343 25.2 97.8763 25.002 98.5243 24.606L99.4063 26.208C98.9503 26.52 98.4403 26.766 97.8763 26.946C97.3243 27.126 96.7783 27.216 96.2383 27.216ZM94.2583 21.564H97.4803C97.4803 21.06 97.3663 20.652 97.1383 20.34C96.9103 20.028 96.5263 19.872 95.9863 19.872C95.5663 19.872 95.1943 20.01 94.8703 20.286C94.5583 20.562 94.3543 20.988 94.2583 21.564ZM101.559 27V14.382H104.205V17.478L104.079 19.08C104.415 18.78 104.805 18.504 105.249 18.252C105.693 17.988 106.221 17.856 106.833 17.856C107.805 17.856 108.507 18.174 108.939 18.81C109.383 19.446 109.605 20.328 109.605 21.456V27H106.959V21.798C106.959 21.15 106.869 20.706 106.689 20.466C106.521 20.226 106.245 20.106 105.861 20.106C105.525 20.106 105.237 20.184 104.997 20.34C104.757 20.484 104.493 20.694 104.205 20.97V27H101.559Z" fill="white"/>
<path d="M114.902 27.216C114.434 27.216 114.038 27.144 113.714 27C113.402 26.856 113.144 26.658 112.94 26.406C112.748 26.154 112.61 25.848 112.526 25.488C112.442 25.128 112.4 24.732 112.4 24.3V19.458H111.104V18.342L112.472 18.252L112.652 15.804H113.894V18.252H116.252V19.458H113.894V24.318C113.894 24.858 113.99 25.278 114.182 25.578C114.386 25.866 114.74 26.01 115.244 26.01C115.4 26.01 115.568 25.986 115.748 25.938C115.928 25.89 116.09 25.836 116.234 25.776L116.522 26.892C116.282 26.976 116.018 27.048 115.73 27.108C115.454 27.18 115.178 27.216 114.902 27.216ZM121.386 27.216C120.846 27.216 120.33 27.114 119.838 26.91C119.358 26.706 118.932 26.412 118.56 26.028C118.188 25.632 117.888 25.152 117.66 24.588C117.444 24.012 117.336 23.364 117.336 22.644C117.336 21.912 117.444 21.264 117.66 20.7C117.888 20.124 118.188 19.638 118.56 19.242C118.932 18.846 119.358 18.546 119.838 18.342C120.33 18.138 120.846 18.036 121.386 18.036C121.926 18.036 122.436 18.138 122.916 18.342C123.408 18.546 123.84 18.846 124.212 19.242C124.584 19.638 124.878 20.124 125.094 20.7C125.322 21.264 125.436 21.912 125.436 22.644C125.436 23.364 125.322 24.012 125.094 24.588C124.878 25.152 124.584 25.632 124.212 26.028C123.84 26.412 123.408 26.706 122.916 26.91C122.436 27.114 121.926 27.216 121.386 27.216ZM121.386 25.992C121.758 25.992 122.1 25.914 122.412 25.758C122.724 25.59 122.988 25.362 123.204 25.074C123.432 24.774 123.606 24.42 123.726 24.012C123.846 23.604 123.906 23.148 123.906 22.644C123.906 22.14 123.846 21.684 123.726 21.276C123.606 20.856 123.432 20.496 123.204 20.196C122.988 19.896 122.724 19.668 122.412 19.512C122.1 19.344 121.758 19.26 121.386 19.26C121.014 19.26 120.672 19.344 120.36 19.512C120.048 19.668 119.778 19.896 119.55 20.196C119.334 20.496 119.166 20.856 119.046 21.276C118.926 21.684 118.866 22.14 118.866 22.644C118.866 23.148 118.926 23.604 119.046 24.012C119.166 24.42 119.334 24.774 119.55 25.074C119.778 25.362 120.048 25.59 120.36 25.758C120.672 25.914 121.014 25.992 121.386 25.992ZM127.74 27V14.184H129.198V22.86H129.252L132.978 18.252H134.616L131.682 21.762L135.012 27H133.392L130.836 22.788L129.198 24.696V27H127.74Z" fill="white" fill-opacity="0.463202"/>
<g filter="url(#filter0_d_30_378)">
<rect x="25" y="19" width="8" height="8" rx="1" fill="url(#paint0_linear_30_378)"/>
</g>
<g filter="url(#filter1_d_30_378)">
<circle cx="33.5" cy="17.5" r="3.5" stroke="white"/>
</g>
<defs>
<filter id="filter0_d_30_378" x="0" y="0" width="58" height="58" filterUnits="userSpaceOnUse" color-interpolation-filters="sRGB">
<feFlood flood-opacity="0" result="BackgroundImageFix"/>
<feColorMatrix in="SourceAlpha" type="matrix" values="0 0 0 0 0 0 0 0 0 0 0 0 0 0 0 0 0 0 127 0" result="hardAlpha"/>
<feOffset dy="6"/>
<feGaussianBlur stdDeviation="12.5"/>
<feColorMatrix type="matrix" values="0 0 0 0 0.602048 0 0 0 0 0.949963 0 0 0 0 0.930168 0 0 0 0.355129 0"/>
<feBlend mode="normal" in2="BackgroundImageFix" result="effect1_dropShadow_30_378"/>
<feBlend mode="normal" in="SourceGraphic" in2="effect1_dropShadow_30_378" result="shape"/>
</filter>
<filter id="filter1_d_30_378" x="20.5" y="10.5" width="26" height="26" filterUnits="userSpaceOnUse" color-interpolation-filters="sRGB">
<feFlood flood-opacity="0" result="BackgroundImageFix"/>
<feColorMatrix in="SourceAlpha" type="matrix" values="0 0 0 0 0 0 0 0 0 0 0 0 0 0 0 0 0 0 127 0" result="hardAlpha"/>
<feOffset dy="6"/>
<feGaussianBlur stdDeviation="4.5"/>
<feColorMatrix type="matrix" values="0 0 0 0 0.0944005 0 0 0 0 0.0811398 0 0 0 0 0.223693 0 0 0 1 0"/>
<feBlend mode="normal" in2="BackgroundImageFix" result="effect1_dropShadow_30_378"/>
<feBlend mode="normal" in="SourceGraphic" in2="effect1_dropShadow_30_378" result="shape"/>
</filter>
<linearGradient id="paint0_linear_30_378" x1="21.7405" y1="17" x2="17.7405" y2="31.5191" gradientUnits="userSpaceOnUse">
<stop stop-color="#86E3FF"/>
<stop offset="1" stop-color="#4CFA9D"/>
</linearGradient>
</defs>
</svg>
