<?xml version="1.0" encoding="utf-8"?><svg xmlns="http://www.w3.org/2000/svg" xmlns:xlink="http://www.w3.org/1999/xlink"><symbol viewBox="0 0 27 27" id="account" xmlns="http://www.w3.org/2000/svg"><path d="M12.316 21.25a1 1 0 0 0 1.782 0l3.694-7.255a1 1 0 0 0-.538-1.39l-2.858-1.078a3 3 0 0 0-2.06-.021L9.189 12.62a1 1 0 0 0-.557 1.396l3.684 7.234zM16 7.5a2.5 2.5 0 1 1-5 0 2.5 2.5 0 0 1 5 0z"/></symbol><symbol viewBox="0 0 9 6" id="arrow-down" xmlns="http://www.w3.org/2000/svg"><path fill-rule="evenodd" clip-rule="evenodd" d="M4.5 3.021L6.735.747 8.16 2.15 4.5 5.876.838 2.149 2.265.747 4.5 3.021z"/></symbol><symbol viewBox="0 0 10 12" id="bell" xmlns="http://www.w3.org/2000/svg"><path fill-rule="evenodd" clip-rule="evenodd" d="M5 0C3.93 0 2.982.692 2.655 1.711L0 10h10L7.345 1.711A2.462 2.462 0 0 0 5 0zM3.5 11a.5.5 0 0 0 0 1h3a.5.5 0 0 0 0-1h-3z"/></symbol><symbol viewBox="0 0 14 18" id="bitcoin" xmlns="http://www.w3.org/2000/svg"><path fill-rule="evenodd" clip-rule="evenodd" d="M4.284 4.46L4.3 7.55h4.43a1.42 1.42 0 0 0 1.421-1.427l-.001-.235a1.437 1.437 0 0 0-1.435-1.426h-4.43zm6.43 7.783l-.002-.248a1.601 1.601 0 0 0-1.6-1.59H4.314l.017 3.429h4.8c.877 0 1.588-.714 1.583-1.59zm1.406-3.505a4.451 4.451 0 0 1 1.447 3.257l.001.248a4.425 4.425 0 0 1-4.425 4.445h-.108L9.041 18H6.187l-.007-1.312H5.01L5.017 18H2.162l-.006-1.312H.074L.06 13.834h1.415L1.43 4.46H.014L0 1.605h2.082L2.074 0H4.93l.008 1.605h1.17L6.099 0h2.855l.007 1.618a4.31 4.31 0 0 1 4.044 4.27v.234a4.24 4.24 0 0 1-.885 2.616z"/></symbol><symbol viewBox="0 0 13 12" id="convert" xmlns="http://www.w3.org/2000/svg"><path fill-rule="evenodd" clip-rule="evenodd" d="M3.414 4l2.293-2.293L4.293.293.586 4l3.707 3.707 1.414-1.414L3.414 4zm6.172 4L7.293 5.707l1.414-1.414L12.415 8l-3.708 3.707-1.414-1.414L9.586 8z"/></symbol><symbol viewBox="0 0 27 27" id="dashboard" xmlns="http://www.w3.org/2000/svg"><rect x="7.105" y="7.105" width="4" height="4" rx="1.4"/><rect x="7.105" y="13.105" width="4" height="4" rx="1.4"/><rect x="13.105" y="7.105" width="4" height="4" rx="1.4"/><rect x="13.105" y="13.105" width="7" height="7" rx="1.4"/></symbol><symbol viewBox="0 0 17 26" id="eth" xmlns="http://www.w3.org/2000/svg"><path fill-rule="evenodd" clip-rule="evenodd" d="M8.49 9.606L0 13.233l8.49 4.712 8.485-4.712-8.486-3.627z" fill-opacity=".6"/><path fill-rule="evenodd" clip-rule="evenodd" d="M0 13.233l8.49 4.712V0L0 13.233z"/><path fill-rule="evenodd" clip-rule="evenodd" d="M8.49 0v17.945l8.485-4.712L8.489 0zM0 14.744L8.49 25.98v-6.524L0 14.744z"/><path fill-rule="evenodd" clip-rule="evenodd" d="M8.49 19.456v6.524l8.492-11.236-8.493 4.712z"/></symbol><symbol viewBox="0 0 32 32" id="hamb" xmlns="http://www.w3.org/2000/svg"><path fill-rule="evenodd" clip-rule="evenodd" d="M6 8a2 2 0 1 1 4 0 2 2 0 0 1-4 0zm0 8a2 2 0 1 1 4 0 2 2 0 0 1-4 0zM16 6a2 2 0 1 0 0 4 2 2 0 0 0 0-4zm-2 10a2 2 0 1 1 4 0 2 2 0 0 1-4 0zM24 6a2 2 0 1 0 0 4 2 2 0 0 0 0-4zm-2 10a2 2 0 1 1 4 0 2 2 0 0 1-4 0zM8 22a2 2 0 1 0 0 4 2 2 0 0 0 0-4zm6 2a2 2 0 1 1 4 0 2 2 0 0 1-4 0zm10-2a2 2 0 1 0 0 4 2 2 0 0 0 0-4z"/></symbol><symbol viewBox="0 0 50 42" id="hamb-close" xmlns="http://www.w3.org/2000/svg"><path fill-rule="evenodd" clip-rule="evenodd" d="M20.062 19.81l-3.968-3.898 1.683-1.712 5.71 5.61-5.71 5.612-1.683-1.712 3.968-3.9zm8.065 0l-2.355-2.313 1.682-1.712 4.097 4.026-4.097 4.026-1.682-1.712 2.355-2.314z"/></symbol><symbol viewBox="0 0 24 24" id="litecoin" xmlns="http://www.w3.org/2000/svg"><path opacity=".87" fill-rule="evenodd" clip-rule="evenodd" d="M.062 12c0 6.592 5.344 11.936 11.936 11.936 6.593 0 11.937-5.344 11.937-11.937C23.935 5.407 18.59.062 11.998.062 5.406.063.062 5.407.062 12zm13.85-.402l-1.836.67-.776 2.92h6.135l-.63 2.347H6.979l1.003-3.77-1.42.518.47-1.769 1.42-.519 1.703-6.397h3.692L12.546 10.5l1.806-.66.016.042-.457 1.716z"/></symbol><symbol viewBox="0 0 27 27" id="messages" xmlns="http://www.w3.org/2000/svg"><path d="M19.323 8.96a.993.993 0 0 0-1.256-1.257l-9.905 3.302a.993.993 0 0 0-.388 1.644l2.292 2.293 4.237-2.219-2.22 4.236 2.294 2.293a.993.993 0 0 0 1.644-.388l3.302-9.905zM10 18.5a1.5 1.5 0 1 1-3 0 1.5 1.5 0 0 1 3 0z"/></symbol><symbol viewBox="0 0 32 32" id="search" xmlns="http://www.w3.org/2000/svg"><path fill-rule="evenodd" clip-rule="evenodd" d="M14.5 6a8.5 8.5 0 1 0 0 17 8.5 8.5 0 0 0 0-17zM4 14.5C4 8.701 8.701 4 14.5 4S25 8.701 25 14.5 20.299 25 14.5 25 4 20.299 4 14.5z"/><path fill-rule="evenodd" clip-rule="evenodd" d="M25.086 27.5L20.5 23l1.5-1.5 4.5 4.586-1.414 1.414z"/></symbol><symbol viewBox="0 0 27 27" id="trade" xmlns="http://www.w3.org/2000/svg"><path d="M13 13H6V6l2.793 2.793 1.06-1.06a1 1 0 0 1 1.415 1.413l-1.06 1.061L13 13zm8.268.732h-7l2.793 2.793L16 17.585A1 1 0 0 0 17.414 19l1.06-1.06 2.794 2.792v-7z"/></symbol><symbol viewBox="0 0 6 6" id="trend" xmlns="http://www.w3.org/2000/svg"><path d="M3.606 3.606l-.909.91a.857.857 0 0 1-1.212-1.213l.909-.91L0 0h6v6L3.606 3.606z"/></symbol><symbol viewBox="0 0 27 27" id="wallet" xmlns="http://www.w3.org/2000/svg"><path fill-rule="evenodd" clip-rule="evenodd" d="M9 7a2 2 0 0 0-2 2v9a2 2 0 0 0 2 2h9a2 2 0 0 0 2-2V9a2 2 0 0 0-2-2H9zm5.5 5a1.5 1.5 0 0 0 0 3h2a1.5 1.5 0 0 0 0-3h-2z"/></symbol></svg>