<svg width="34" height="12" viewBox="0 0 34 12" fill="none" xmlns="http://www.w3.org/2000/svg">
<path d="M31.0995 10.5972C31.3397 11.0945 31.9375 11.303 32.4348 11.0628C32.9322 10.8227 33.1407 10.2248 32.9005 9.72749L31.0995 10.5972ZM1.70711 1.85885C1.31658 1.46832 0.683418 1.46832 0.292893 1.85885C-0.0976311 2.24937 -0.0976311 2.88253 0.292893 3.27306L1.70711 1.85885ZM32 10.1623C32.9005 9.72749 32.9004 9.72722 32.9002 9.72692C32.9002 9.72679 32.9 9.72648 32.8999 9.72622C32.8996 9.72571 32.8994 9.72511 32.899 9.72442C32.8983 9.72304 32.8975 9.72131 32.8965 9.71923C32.8945 9.71508 32.8917 9.70955 32.8884 9.70269C32.8816 9.68896 32.8721 9.6699 32.8599 9.64593C32.8356 9.59799 32.8007 9.53028 32.7558 9.44613C32.666 9.27803 32.5354 9.04308 32.3686 8.76814C32.0378 8.22267 31.5522 7.49923 30.9467 6.82556C30.3503 6.16202 29.581 5.48262 28.6693 5.10987C27.7135 4.7191 26.6156 4.67639 25.5144 5.28818L26.4856 7.03649C26.9884 6.7572 27.4424 6.76896 27.9124 6.96111C28.4264 7.17128 28.9566 7.60327 29.4592 8.16249C29.9527 8.71159 30.3656 9.32231 30.6586 9.8053C30.8037 10.0446 30.9163 10.2474 30.9918 10.3886C31.0294 10.4591 31.0576 10.5138 31.0758 10.5497C31.0849 10.5677 31.0915 10.5809 31.0954 10.5889C31.0974 10.5929 31.0988 10.5957 31.0994 10.5971C31.0998 10.5978 31.1 10.5981 31.1 10.5981C31.1 10.5982 31.0999 10.5981 31.0999 10.5979C31.0998 10.5978 31.0997 10.5977 31.0997 10.5976C31.0996 10.5974 31.0995 10.5972 32 10.1623ZM25.5144 5.28818C24.0286 6.11362 22.7495 6.44902 21.3309 6.08946C19.8539 5.71508 18.0444 4.54354 15.6415 1.89415L14.1601 3.23775C16.658 5.99199 18.7941 7.50971 20.8395 8.02815C22.9434 8.56142 24.7636 7.99319 26.4856 7.03649L25.5144 5.28818ZM15.6415 1.89415C14.2337 0.341925 12.7692 -0.172568 11.2673 0.048837C9.90865 0.249113 8.63967 1.05215 7.59528 1.69172C6.45798 2.38819 5.52479 2.93572 4.59341 3.07217C3.78118 3.19116 2.85535 3.00709 1.70711 1.85885L0.292893 3.27306C1.81788 4.79805 3.35366 5.27514 4.88331 5.05104C6.29381 4.84441 7.58276 4.04461 8.63976 3.39731C9.78966 2.69313 10.6871 2.15597 11.559 2.02745C12.2875 1.92007 13.1174 2.08817 14.1601 3.23775L15.6415 1.89415Z" fill="url(#paint0_linear_36_52)"/>
<defs>
<linearGradient id="paint0_linear_36_52" x1="12.8537" y1="-1.42577" x2="19.2383" y2="15.0944" gradientUnits="userSpaceOnUse">
<stop stop-color="#A330FF" stop-opacity="0.01"/>
<stop offset="0.393247" stop-color="#BC3DCB"/>
<stop offset="1" stop-color="#E3507A"/>
</linearGradient>
</defs>
</svg>
