<svg width="34" height="12" viewBox="0 0 34 12" fill="none" xmlns="http://www.w3.org/2000/svg">
<path fill-rule="evenodd" clip-rule="evenodd" d="M16.0953 7.98069C15.6288 8.97125 14.9397 10.0759 13.8264 10.4934C13.0329 10.7909 12.3278 10.9332 11.6535 10.8939C10.9663 10.8538 10.3966 10.6302 9.87542 10.3325C9.46908 10.1004 9.05247 9.79769 8.6371 9.49589C8.55128 9.43353 8.46552 9.37122 8.37991 9.30957C7.85851 8.93412 7.26711 8.52492 6.51455 8.10683C5.98009 7.80991 5.49668 7.80474 5.02199 7.96097C4.51029 8.12937 3.98845 8.49657 3.49522 8.97731C3.00929 9.45093 2.60208 9.98456 2.31279 10.4088C2.16957 10.6189 2.05857 10.7972 1.98451 10.9209C1.94755 10.9827 1.91997 11.0306 1.90237 11.0616L1.88358 11.0951L1.8803 11.1011C1.61794 11.5868 1.01132 11.7686 0.525414 11.5064C0.0393452 11.2442 -0.142125 10.6376 0.120089 10.1515L1.00019 10.6263C0.120089 10.1515 0.119922 10.1518 0.120089 10.1515L0.121768 10.1484L0.124487 10.1434L0.133019 10.1279C0.140073 10.1151 0.149856 10.0976 0.162294 10.0756C0.18716 10.0318 0.222705 9.97017 0.268353 9.89389C0.359517 9.74155 0.491719 9.52943 0.660385 9.28207C0.994857 8.79156 1.48618 8.14263 2.09926 7.54507C2.70505 6.95463 3.48271 6.36203 4.39675 6.06121C5.3478 5.7482 6.41636 5.76437 7.48584 6.35852C8.33722 6.83151 9.00073 7.29205 9.54861 7.68657C9.65366 7.76221 9.7522 7.83368 9.8454 7.90127C10.2573 8.19999 10.5648 8.42297 10.8674 8.59581C11.2075 8.79008 11.4769 8.8802 11.7699 8.89727C12.0757 8.91509 12.4919 8.8578 13.1241 8.6207C13.4365 8.50356 13.839 8.07753 14.2859 7.12857C14.667 6.31929 14.9848 5.34784 15.3112 4.34958C15.3478 4.23781 15.3845 4.12571 15.4213 4.01346C15.7644 2.96916 16.1501 1.82516 16.6553 1.07339C16.9095 0.695061 17.2933 0.260778 17.8625 0.0811825C18.4978 -0.119292 19.0978 0.0735219 19.5814 0.418943C20.7865 1.27971 22.8043 2.51437 25.105 2.92118C27.3453 3.3173 29.8793 2.9394 32.2931 0.52557C32.6836 0.135045 33.3168 0.135045 33.7073 0.52557C34.0978 0.916094 34.0978 1.54926 33.7073 1.93978C30.7747 4.87241 27.5561 5.38558 24.7568 4.89063C22.0196 4.40666 19.7118 2.96957 18.4214 2.04812C18.3935 2.08018 18.3579 2.12555 18.3153 2.18889C17.9962 2.66379 17.6913 3.51177 17.3214 4.63766C17.2849 4.74897 17.2478 4.86243 17.2102 4.97755C16.8914 5.95398 16.5333 7.0507 16.0953 7.98069Z" fill="url(#paint0_linear_35_39)"/>
<defs>
<linearGradient id="paint0_linear_35_39" x1="21.233" y1="-1.36332" x2="14.6985" y2="15.2499" gradientUnits="userSpaceOnUse">
<stop stop-color="#AAFFF7"/>
<stop offset="1" stop-color="white"/>
</linearGradient>
</defs>
</svg>
