<svg width="131" height="84" viewBox="0 0 131 84" fill="none" xmlns="http://www.w3.org/2000/svg">
<mask id="mask0_47_35" style="mask-type:alpha" maskUnits="userSpaceOnUse" x="0" y="0" width="131" height="84">
<rect width="131" height="84" fill="#C4C4C4"/>
</mask>
<g mask="url(#mask0_47_35)">
</g>
<g opacity="0.24" filter="url(#filter0_f_47_35)">
<path opacity="0.24" d="M89.4132 53.2131C96.431 53.2131 102.12 47.5963 102.12 40.6676C102.12 33.7389 96.431 28.1221 89.4132 28.1221C82.3955 28.1221 76.7065 33.7389 76.7065 40.6676C76.7065 47.5963 82.3955 53.2131 89.4132 53.2131Z" fill="#FF7EFA" fill-opacity="0.98"/>
</g>
<path d="M67.3789 78.7358L80.2974 71.1806V56.3428L67.3789 64.1274V78.7358Z" fill="url(#paint0_linear_47_35)"/>
<path d="M67.3868 78.8504L55.0386 71.8709V56.5566L67.3868 64.2557V78.8504Z" fill="url(#paint1_linear_47_35)"/>
<path opacity="0.4" d="M65.4298 75.317L56.9956 70.5499V60.0898L65.4298 65.3485V75.317Z" stroke="url(#paint2_linear_47_35)" stroke-width="0.864"/>
<path opacity="0.405357" d="M67.6402 60.1818L61.2936 56.5503L35.0986 10.1836H68.736L73.0802 56.5503L67.6402 60.1818Z" fill="url(#paint3_linear_47_35)"/>
<path opacity="0.405357" d="M73.0801 56.597L85.7735 13.584H61.2935L70.3601 61.9736L73.0801 56.597Z" fill="url(#paint4_linear_47_35)"/>
<path d="M79.5497 38.679C81.0679 37.6889 82.1368 37.581 82.7885 38.04L83.8171 38.5773L83.576 38.924C84.3625 41.2722 82.3324 46.6263 78.0715 49.1716C77.1745 49.7075 76.438 49.9765 75.8507 50.0314L75.6274 50.3523L74.8856 49.8784C72.6357 48.7271 74.7641 41.8 79.5497 38.679Z" fill="#D7911D"/>
<path d="M80.7876 39.1857C74.5575 43.2655 72.5021 53.7729 79.1217 49.8023C85.7414 45.8317 87.0178 35.1059 80.7876 39.1857Z" fill="url(#paint5_linear_47_35)"/>
<path opacity="0.4" d="M80.4547 40.7977C75.9935 43.8148 74.6098 51.3566 79.3499 48.4203C84.09 45.484 84.9159 37.7806 80.4547 40.7977Z" stroke="#D7911D" stroke-width="0.5"/>
<path d="M48.3866 36.5327C46.597 36.8197 45.5766 36.4834 45.168 35.7991L44.4468 34.8898L44.8081 34.6712C45.0447 32.2061 49.077 28.1406 54.0047 27.5484C55.0422 27.4237 55.8244 27.4775 56.3833 27.6663L56.7178 27.4639L57.2027 28.1986C58.7898 30.1654 54.0279 35.6279 48.3866 36.5327Z" fill="#D7911D"/>
<path d="M47.4618 35.5655C54.8127 34.3725 60.9641 25.6094 53.3018 26.5443C45.6395 27.4792 40.1108 36.7585 47.4618 35.5655Z" fill="url(#paint6_linear_47_35)"/>
<path opacity="0.4" d="M48.4218 34.2289C53.7244 33.2872 58.0561 26.9602 52.5315 27.7147C47.0069 28.4691 43.1191 35.1706 48.4218 34.2289Z" stroke="#D7911D" stroke-width="0.5"/>
<path d="M75.8394 23.8989C75.8342 22.6597 76.1791 22.0313 76.6998 21.8656L77.411 21.5264L77.524 21.8017C79.2139 22.3449 81.6052 25.6715 81.4817 29.0527C81.4557 29.7646 81.3333 30.2782 81.1411 30.6217L81.2456 30.8766L80.6816 31.0854C79.1402 31.8371 75.8559 27.8052 75.8394 23.8989Z" fill="#D7911D"/>
<path d="M76.5577 23.5123C76.5891 28.6047 82.0194 34.0798 82.2016 28.82C82.3838 23.5602 76.5264 18.42 76.5577 23.5123Z" fill="url(#paint7_linear_47_35)"/>
<path opacity="0.3" d="M77.1822 24.1037C77.2066 28.0628 81.4285 32.3196 81.5702 28.2302C81.7119 24.1409 77.1579 20.1445 77.1822 24.1037Z" stroke="#D7911D" stroke-width="0.5"/>
<path d="M55.0386 56.6734L67.7196 49.7158L80.1059 56.4597L67.3996 64.2121L55.0386 56.6734Z" fill="url(#paint8_linear_47_35)"/>
<path d="M61.3169 56.8377L67.6691 53.3496L73.8737 56.7305L67.5088 60.6171L61.3169 56.8377Z" fill="url(#paint9_linear_47_35)"/>
<g opacity="0.405357" filter="url(#filter1_f_47_35)">
<path opacity="0.405357" d="M79.0693 76.3925C83.5531 76.3925 87.1879 72.8038 87.1879 68.3769C87.1879 63.95 83.5531 60.3613 79.0693 60.3613C74.5855 60.3613 70.9507 63.95 70.9507 68.3769C70.9507 72.8038 74.5855 76.3925 79.0693 76.3925Z" fill="#FFC37E" fill-opacity="0.98"/>
</g>
<g opacity="0.405357" filter="url(#filter2_f_47_35)">
<path opacity="0.405357" d="M52.6884 66.4545C56.9492 66.4545 60.4032 63.0443 60.4032 58.8376C60.4032 54.6309 56.9492 51.2207 52.6884 51.2207C48.4277 51.2207 44.9736 54.6309 44.9736 58.8376C44.9736 63.0443 48.4277 66.4545 52.6884 66.4545Z" fill="#FF7E95" fill-opacity="0.98"/>
</g>
<path d="M67.8115 56.5564V44.9665L72.8384 41.0874C73.0504 40.9238 73.1746 40.6712 73.1746 40.4034V33.0439" stroke="url(#paint10_linear_47_35)" stroke-width="0.864"/>
<path d="M67.7929 44.9281V40.2055C67.7929 39.7283 67.406 39.3415 66.9289 39.3415H63.2651V33.2578" stroke="url(#paint11_linear_47_35)" stroke-width="0.864"/>
<path d="M63.3736 34.3261C63.9117 34.3261 64.3479 33.8954 64.3479 33.3642C64.3479 32.833 63.9117 32.4023 63.3736 32.4023C62.8356 32.4023 62.3994 32.833 62.3994 33.3642C62.3994 33.8954 62.8356 34.3261 63.3736 34.3261Z" fill="url(#paint12_linear_47_35)"/>
<path d="M73.1158 34.3261C73.6539 34.3261 74.0901 33.8954 74.0901 33.3642C74.0901 32.833 73.6539 32.4023 73.1158 32.4023C72.5778 32.4023 72.1416 32.833 72.1416 33.3642C72.1416 33.8954 72.5778 34.3261 73.1158 34.3261Z" fill="url(#paint13_linear_47_35)"/>
<path d="M67.92 45.6552C68.4581 45.6552 68.8943 45.2245 68.8943 44.6933C68.8943 44.1621 68.4581 43.7314 67.92 43.7314C67.382 43.7314 66.9458 44.1621 66.9458 44.6933C66.9458 45.2245 67.382 45.6552 67.92 45.6552Z" fill="url(#paint14_linear_47_35)"/>
<path d="M54.2533 41.5087C54.9774 40.1011 55.7412 39.5681 56.4329 39.6511L57.4442 39.6367L57.4108 40.0075C59.0189 41.5025 59.7874 46.518 57.6545 50.2872C57.2055 51.0807 56.7632 51.5993 56.3416 51.8887L56.3107 52.232L55.5441 52.1753C53.3426 52.2255 51.9708 45.9458 54.2533 41.5087Z" fill="#D7911D"/>
<path d="M55.3007 41.4431C52.3364 47.2326 55.3065 56.2651 58.6131 50.3968C61.9197 44.5285 58.2651 35.6536 55.3007 41.4431Z" fill="url(#paint15_linear_47_35)"/>
<path opacity="0.4" d="M55.7262 42.606C53.5326 46.8902 55.7305 53.5743 58.1774 49.2317C60.6243 44.8892 57.9198 38.3217 55.7262 42.606Z" stroke="#D7911D" stroke-width="0.5"/>
<path opacity="0.2" fill-rule="evenodd" clip-rule="evenodd" d="M59.8051 46.79C59.8009 46.7919 59.7968 46.7938 59.7927 46.7957C57.7786 47.7397 56.083 49.311 54.8853 50.9638C55.7294 52.6672 57.1379 53.0156 58.6134 50.397C59.2516 49.2643 59.6305 48.0196 59.8051 46.79Z" fill="black"/>
<defs>
<filter id="filter0_f_47_35" x="48.7065" y="0.12207" width="81.4136" height="81.0908" filterUnits="userSpaceOnUse" color-interpolation-filters="sRGB">
<feFlood flood-opacity="0" result="BackgroundImageFix"/>
<feBlend mode="normal" in="SourceGraphic" in2="BackgroundImageFix" result="shape"/>
<feGaussianBlur stdDeviation="14" result="effect1_foregroundBlur_47_35"/>
</filter>
<filter id="filter1_f_47_35" x="63.9507" y="53.3613" width="30.2373" height="30.0312" filterUnits="userSpaceOnUse" color-interpolation-filters="sRGB">
<feFlood flood-opacity="0" result="BackgroundImageFix"/>
<feBlend mode="normal" in="SourceGraphic" in2="BackgroundImageFix" result="shape"/>
<feGaussianBlur stdDeviation="3.5" result="effect1_foregroundBlur_47_35"/>
</filter>
<filter id="filter2_f_47_35" x="27.9736" y="34.2207" width="49.4297" height="49.2334" filterUnits="userSpaceOnUse" color-interpolation-filters="sRGB">
<feFlood flood-opacity="0" result="BackgroundImageFix"/>
<feBlend mode="normal" in="SourceGraphic" in2="BackgroundImageFix" result="shape"/>
<feGaussianBlur stdDeviation="8.5" result="effect1_foregroundBlur_47_35"/>
</filter>
<linearGradient id="paint0_linear_47_35" x1="75.0031" y1="30.2986" x2="34.4497" y2="44.5028" gradientUnits="userSpaceOnUse">
<stop stop-color="#EDB64F"/>
<stop offset="1" stop-color="#DD26BC"/>
</linearGradient>
<linearGradient id="paint1_linear_47_35" x1="73.6709" y1="67.7987" x2="49.2392" y2="53.0483" gradientUnits="userSpaceOnUse">
<stop stop-color="#6B1B98"/>
<stop offset="1" stop-color="#DE0F62"/>
</linearGradient>
<linearGradient id="paint2_linear_47_35" x1="56.0304" y1="56.283" x2="45.6243" y2="70.449" gradientUnits="userSpaceOnUse">
<stop stop-color="#FFD599"/>
<stop offset="0.482372" stop-color="#D178A0"/>
<stop offset="1" stop-color="#FFCE08"/>
</linearGradient>
<linearGradient id="paint3_linear_47_35" x1="44.6495" y1="15.5163" x2="44.6495" y2="81.0254" gradientUnits="userSpaceOnUse">
<stop stop-color="#FDF27D" stop-opacity="0.01"/>
<stop offset="0.4936" stop-color="#FCF17B" stop-opacity="0.240234"/>
<stop offset="1" stop-color="#FBF079"/>
</linearGradient>
<linearGradient id="paint4_linear_47_35" x1="56.5956" y1="18.9996" x2="56.5956" y2="65.9676" gradientUnits="userSpaceOnUse">
<stop stop-color="#FDF27D" stop-opacity="0.01"/>
<stop offset="0.4936" stop-color="#FCF17B" stop-opacity="0.240234"/>
<stop offset="1" stop-color="#FBF079"/>
</linearGradient>
<linearGradient id="paint5_linear_47_35" x1="73.5312" y1="36.0913" x2="68.2171" y2="51.6755" gradientUnits="userSpaceOnUse">
<stop stop-color="#FFF585"/>
<stop offset="1" stop-color="#DCC613"/>
</linearGradient>
<linearGradient id="paint6_linear_47_35" x1="52.8322" y1="41.3438" x2="64.0256" y2="29.2684" gradientUnits="userSpaceOnUse">
<stop stop-color="#FFF585"/>
<stop offset="1" stop-color="#DCC613"/>
</linearGradient>
<linearGradient id="paint7_linear_47_35" x1="71.9523" y1="26.1932" x2="78.6659" y2="35.8797" gradientUnits="userSpaceOnUse">
<stop stop-color="#FFF585"/>
<stop offset="1" stop-color="#DCC613"/>
</linearGradient>
<linearGradient id="paint8_linear_47_35" x1="76.3934" y1="40.0276" x2="51.5307" y2="68.2267" gradientUnits="userSpaceOnUse">
<stop stop-color="#EDB64F"/>
<stop offset="0.977895" stop-color="#E64082"/>
</linearGradient>
<linearGradient id="paint9_linear_47_35" x1="71.3791" y1="52.5564" x2="56.0812" y2="52.5564" gradientUnits="userSpaceOnUse">
<stop stop-color="#FFD066"/>
<stop offset="1" stop-color="#CE1D64"/>
</linearGradient>
<linearGradient id="paint10_linear_47_35" x1="67.1978" y1="27.1658" x2="52.8328" y2="35.2189" gradientUnits="userSpaceOnUse">
<stop stop-color="#FFD599"/>
<stop offset="0.482372" stop-color="#D178A0"/>
<stop offset="1" stop-color="#FFE26F"/>
</linearGradient>
<linearGradient id="paint11_linear_47_35" x1="60.7551" y1="31.6976" x2="53.3715" y2="54.2896" gradientUnits="userSpaceOnUse">
<stop stop-color="#FFD599"/>
<stop offset="1" stop-color="#A014A8"/>
</linearGradient>
<linearGradient id="paint12_linear_47_35" x1="67.0372" y1="35.9873" x2="65.1323" y2="30.6615" gradientUnits="userSpaceOnUse">
<stop stop-color="#FFFCF5"/>
<stop offset="1" stop-color="#FFEFAD"/>
</linearGradient>
<linearGradient id="paint13_linear_47_35" x1="76.7793" y1="35.9873" x2="74.8744" y2="30.6615" gradientUnits="userSpaceOnUse">
<stop stop-color="#FFFCF5"/>
<stop offset="1" stop-color="#FFEFAD"/>
</linearGradient>
<linearGradient id="paint14_linear_47_35" x1="71.5835" y1="47.3164" x2="69.6786" y2="41.9906" gradientUnits="userSpaceOnUse">
<stop stop-color="#FFFCF5"/>
<stop offset="1" stop-color="#FFEFAD"/>
</linearGradient>
<linearGradient id="paint15_linear_47_35" x1="48.4668" y1="42.0863" x2="50.932" y2="56.473" gradientUnits="userSpaceOnUse">
<stop stop-color="#FFF585"/>
<stop offset="1" stop-color="#DCC613"/>
</linearGradient>
</defs>
</svg>
