<svg width="27" height="27" viewBox="0 0 27 27" xmlns="http://www.w3.org/2000/svg">
<path d="M12.3158 21.2501C12.6866 21.9784 13.7271 21.9784 14.098 21.2501L17.7924 13.9951C18.0628 13.4642 17.8118 12.8161 17.2544 12.6057L14.3961 11.5269C13.7333 11.2768 13.0034 11.2692 12.3356 11.5057L9.18936 12.6195C8.61993 12.8211 8.35787 13.4777 8.63198 14.016L12.3158 21.2501Z"/>
<path d="M16.0001 7.5C16.0001 8.88071 14.8808 10 13.5001 10C12.1194 10 11.0001 8.88071 11.0001 7.5C11.0001 6.11929 12.1194 5 13.5001 5C14.8808 5 16.0001 6.11929 16.0001 7.5Z"/>
</svg>
