<svg width="14" height="18" viewBox="0 0 14 18" xmlns="http://www.w3.org/2000/svg">
<path fill-rule="evenodd" clip-rule="evenodd" d="M4.28434 4.46064L4.29938 7.54885H8.73031C9.51725 7.54885 10.155 6.90899 10.1511 6.12205L10.15 5.88744C10.1461 5.10038 9.50221 4.46064 8.71515 4.46064H4.28434ZM10.7134 12.2431L10.7121 11.9952C10.708 11.1174 9.99055 10.4047 9.11287 10.4047H4.31331L4.33008 13.8338H9.12951C10.0072 13.8338 10.7177 13.1198 10.7134 12.2431ZM12.1197 8.73758C13.0015 9.55004 13.5606 10.708 13.5669 11.9952L13.5681 12.2431C13.58 14.6938 11.5951 16.6884 9.14344 16.6884H9.03495L9.04124 18H6.18666L6.18025 16.6884H5.01025L5.01666 18H2.16208L2.15567 16.6884H0.0736022L0.0596708 13.8338H1.47537L1.42963 4.46064H0.0139314L0 1.60495H2.08207L2.0743 0H4.92888L4.93665 1.60495H6.10677L6.09888 0H8.95358L8.96135 1.61839C11.2025 1.75437 12.9936 3.61403 13.0047 5.88744L13.0058 6.12205C13.0106 7.10724 12.6773 8.01266 12.1197 8.73758Z"/>
</svg>
