<svg width="27" height="27" viewBox="0 0 27 27" xmlns="http://www.w3.org/2000/svg">
<path d="M19.3229 8.95945C19.5818 8.18297 18.843 7.44425 18.0666 7.70308L8.16183 11.0047C7.46136 11.2381 7.25149 12.1272 7.77359 12.6493L10.0665 14.9422L14.3028 12.7232L12.0838 16.9595L14.3767 19.2524C14.8988 19.7745 15.7879 19.5646 16.0213 18.8642L19.3229 8.95945Z"/>
<path d="M10 18.4997C10 19.3281 9.32843 19.9997 8.5 19.9997C7.67157 19.9997 7 19.3281 7 18.4997C7 17.6713 7.67157 16.9997 8.5 16.9997C9.32843 16.9997 10 17.6713 10 18.4997Z"/>
</svg>
