<svg width="32" height="32" viewBox="0 0 32 32" xmlns="http://www.w3.org/2000/svg">
<path fill-rule="evenodd" clip-rule="evenodd" d="M14.5 6C9.80558 6 6 9.80558 6 14.5C6 19.1944 9.80558 23 14.5 23C19.1944 23 23 19.1944 23 14.5C23 9.80558 19.1944 6 14.5 6ZM4 14.5C4 8.70101 8.70101 4 14.5 4C20.299 4 25 8.70101 25 14.5C25 20.299 20.299 25 14.5 25C8.70101 25 4 20.299 4 14.5Z"/>
<path fill-rule="evenodd" clip-rule="evenodd" d="M25.0859 27.5001L20.5 23L22 21.5L26.5001 26.0859L25.0859 27.5001Z"/>
</svg>
